<!DOCTYPE svg PUBLIC "-//W3C//DTD SVG 20010904//EN" "http://www.w3.org/TR/2001/REC-SVG-20010904/DTD/svg10.dtd">
<svg version="1.0" xmlns="http://www.w3.org/2000/svg" width="1200px" height="675px" viewBox="0 0 12000 6750" preserveAspectRatio="xMidYMid meet">
<g id="layer101" fill="#274753" stroke="none">
<path d="M0 3375 l0 -3375 6000 0 6000 0 0 3375 0 3375 -6000 0 -6000 0 0 -3375z"/>
</g>
<g id="layer102" fill="#4f8627" stroke="none">
<path d="M0 3375 l0 -3375 6000 0 6000 0 0 3375 0 3375 -6000 0 -6000 0 0 -3375z m1980 915 c50 -124 106 -261 124 -305 19 -44 64 -154 101 -245 37 -91 85 -207 106 -257 22 -51 39 -95 39 -98 0 -4 9 -25 19 -48 10 -23 48 -114 84 -202 86 -211 139 -341 232 -565 140 -339 207 -504 235 -575 15 -38 51 -126 80 -195 29 -69 61 -147 72 -175 11 -27 26 -63 33 -80 8 -16 44 -104 81 -195 115 -285 135 -335 141 -347 4 -10 -56 -13 -284 -13 l-288 0 -24 63 c-13 34 -37 92 -53 129 -15 36 -28 69 -28 73 0 4 -20 55 -44 114 -25 58 -101 248 -169 421 -69 173 -162 407 -207 520 -45 113 -93 232 -106 265 -70 182 -171 433 -184 460 -5 11 -23 58 -41 103 -17 46 -35 80 -39 75 -7 -8 -49 -103 -135 -308 -21 -49 -46 -108 -55 -130 -30 -66 -119 -275 -152 -355 -17 -41 -48 -113 -68 -160 -21 -47 -55 -125 -75 -175 -37 -90 -59 -141 -133 -310 -22 -49 -56 -130 -77 -180 -21 -49 -54 -128 -75 -175 -20 -47 -70 -163 -111 -257 l-73 -173 -288 0 c-240 0 -288 2 -288 14 0 8 16 49 36 92 67 147 103 229 137 309 19 44 83 190 142 325 59 135 141 322 182 415 41 94 89 204 108 245 18 41 56 127 83 190 28 63 78 177 111 253 34 76 61 140 61 142 0 1 18 42 40 89 22 47 40 88 40 91 0 4 11 30 24 58 33 70 256 576 267 605 5 12 17 41 28 65 10 23 60 137 111 252 50 116 104 237 119 270 16 33 34 77 42 98 8 23 16 32 20 25 4 -7 48 -114 99 -238z"/>
</g>
<g id="layer103" fill="#e76f51" stroke="none">
<path d="M0 3375 l0 -3375 6000 0 6000 0 0 3375 0 3375 -6000 0 -6000 0 0 -3375z m1980 915 c50 -124 106 -261 124 -305 19 -44 64 -154 101 -245 37 -91 85 -207 106 -257 22 -51 39 -95 39 -98 0 -4 9 -25 19 -48 10 -23 48 -114 84 -202 86 -211 139 -341 232 -565 140 -339 207 -504 235 -575 15 -38 51 -126 80 -195 29 -69 61 -147 72 -175 11 -27 26 -63 33 -80 8 -16 44 -104 81 -195 115 -285 135 -335 141 -347 4 -10 -56 -13 -284 -13 l-288 0 -24 63 c-13 34 -37 92 -53 129 -15 36 -28 69 -28 73 0 4 -20 55 -44 114 -25 58 -101 248 -169 421 -69 173 -162 407 -207 520 -45 113 -93 232 -106 265 -70 182 -171 433 -184 460 -5 11 -23 58 -41 103 -17 46 -35 80 -39 75 -7 -8 -49 -103 -135 -308 -21 -49 -46 -108 -55 -130 -30 -66 -119 -275 -152 -355 -17 -41 -48 -113 -68 -160 -21 -47 -55 -125 -75 -175 -37 -90 -59 -141 -133 -310 -22 -49 -56 -130 -77 -180 -21 -49 -54 -128 -75 -175 -20 -47 -70 -163 -111 -257 l-73 -173 -288 0 c-240 0 -288 2 -288 14 0 8 16 49 36 92 67 147 103 229 137 309 19 44 83 190 142 325 59 135 141 322 182 415 41 94 89 204 108 245 18 41 56 127 83 190 28 63 78 177 111 253 34 76 61 140 61 142 0 1 18 42 40 89 22 47 40 88 40 91 0 4 11 30 24 58 33 70 256 576 267 605 5 12 17 41 28 65 10 23 60 137 111 252 50 116 104 237 119 270 16 33 34 77 42 98 8 23 16 32 20 25 4 -7 48 -114 99 -238z m1869 126 c37 -38 132 -87 261 -136 186 -70 253 -118 301 -215 27 -55 31 -73 27 -122 -7 -104 -75 -203 -193 -281 -71 -47 -75 -45 -75 43 l0 74 43 29 c63 44 89 80 95 129 10 92 -26 128 -231 228 -123 59 -227 128 -265 174 -18 22 -52 88 -52 101 0 24 57 9 89 -24z m251 -21 c0 -61 -8 -67 -60 -40 -24 12 -30 22 -30 49 0 42 5 46 52 46 l38 0 0 -55z m-28 -277 c25 -9 26 -12 32 -111 9 -171 25 -851 20 -857 -3 -2 -35 11 -71 30 l-66 35 2 189 c1 104 4 192 6 196 2 3 5 100 6 215 2 273 7 328 28 319 9 -3 28 -10 43 -16z m-134 -530 l-3 -81 -60 -42 c-42 -30 -64 -53 -74 -79 -13 -34 -12 -41 7 -81 33 -68 96 -109 316 -206 271 -120 381 -224 416 -393 37 -177 -77 -356 -297 -470 l-33 -17 0 68 c0 38 -3 91 -6 119 l-6 51 46 32 c88 61 119 157 76 240 -33 66 -104 115 -315 220 -158 78 -213 111 -262 155 -162 148 -162 343 2 467 52 39 161 98 183 99 10 0 12 -20 10 -82z m142 -723 c28 -14 53 -31 55 -38 2 -7 8 -232 14 -502 6 -269 14 -554 17 -632 l5 -143 -45 0 c-25 0 -48 5 -51 10 -3 6 -28 10 -54 10 -84 0 -79 -24 -70 395 6 278 22 812 29 937 0 9 33 -3 100 -37z m-180 -673 l0 -129 -60 -46 c-107 -83 -149 -196 -116 -310 31 -107 155 -183 339 -207 136 -18 164 -15 209 24 61 52 143 71 314 71 183 0 216 -15 192 -87 -16 -47 -90 -150 -140 -193 -24 -21 -66 -48 -93 -61 l-50 -23 -250 9 c-192 7 -269 14 -330 29 -285 71 -438 235 -453 488 -5 92 19 192 65 271 35 59 116 146 172 185 48 33 180 106 194 107 4 0 7 -58 7 -128z m1040 -501 c0 -16 -30 -41 -49 -41 -10 0 -35 -11 -55 -25 -33 -22 -36 -23 -36 -6 0 24 18 39 77 61 58 22 63 23 63 11z m-832 -507 l72 -7 0 -114 0 -114 -37 8 c-48 10 -116 10 -170 0 l-43 -7 0 109 c0 142 1 145 59 137 25 -3 79 -9 119 -12z m72 -304 c57 -29 87 -52 117 -92 34 -47 29 -51 -24 -18 -70 43 -162 64 -253 57 -61 -5 -90 -13 -152 -45 -43 -22 -78 -36 -78 -30 0 5 21 32 48 59 92 96 230 124 342 69z m-56 -121 c21 -6 58 -29 82 -51 112 -104 96 -276 -34 -359 -44 -28 -53 -30 -124 -27 -66 3 -82 7 -120 33 -53 37 -98 120 -98 179 0 71 19 116 69 166 63 63 138 83 225 59z"/>
</g>
<g id="layer104" fill="#f4a261" stroke="none">
<path d="M0 3375 l0 -3375 6000 0 6000 0 0 3375 0 3375 -6000 0 -6000 0 0 -3375z m1980 915 c50 -124 106 -261 124 -305 19 -44 64 -154 101 -245 37 -91 85 -207 106 -257 22 -51 39 -95 39 -98 0 -4 9 -25 19 -48 10 -23 48 -114 84 -202 86 -211 139 -341 232 -565 140 -339 207 -504 235 -575 15 -38 51 -126 80 -195 29 -69 61 -147 72 -175 11 -27 26 -63 33 -80 8 -16 44 -104 81 -195 115 -285 135 -335 141 -347 4 -10 -56 -13 -284 -13 l-288 0 -24 63 c-13 34 -37 92 -53 129 -15 36 -28 69 -28 73 0 4 -20 55 -44 114 -25 58 -101 248 -169 421 -69 173 -162 407 -207 520 -45 113 -93 232 -106 265 -70 182 -171 433 -184 460 -5 11 -23 58 -41 103 -17 46 -35 80 -39 75 -7 -8 -49 -103 -135 -308 -21 -49 -46 -108 -55 -130 -30 -66 -119 -275 -152 -355 -17 -41 -48 -113 -68 -160 -21 -47 -55 -125 -75 -175 -37 -90 -59 -141 -133 -310 -22 -49 -56 -130 -77 -180 -21 -49 -54 -128 -75 -175 -20 -47 -70 -163 -111 -257 l-73 -173 -288 0 c-240 0 -288 2 -288 14 0 8 16 49 36 92 67 147 103 229 137 309 19 44 83 190 142 325 59 135 141 322 182 415 41 94 89 204 108 245 18 41 56 127 83 190 28 63 78 177 111 253 34 76 61 140 61 142 0 1 18 42 40 89 22 47 40 88 40 91 0 4 11 30 24 58 33 70 256 576 267 605 5 12 17 41 28 65 10 23 60 137 111 252 50 116 104 237 119 270 16 33 34 77 42 98 8 23 16 32 20 25 4 -7 48 -114 99 -238z m1869 126 c37 -38 132 -87 261 -136 186 -70 253 -118 301 -215 27 -55 31 -73 27 -122 -7 -104 -75 -203 -193 -281 -71 -47 -75 -45 -75 43 l0 74 43 29 c63 44 89 80 95 129 10 92 -26 128 -231 228 -123 59 -227 128 -265 174 -18 22 -52 88 -52 101 0 24 57 9 89 -24z m251 -21 c0 -61 -8 -67 -60 -40 -24 12 -30 22 -30 49 0 42 5 46 52 46 l38 0 0 -55z m4298 -32 c12 -31 233 -592 260 -661 l17 -42 604 2 605 3 27 65 c16 36 79 193 140 350 62 157 117 291 122 298 7 9 78 12 294 12 l284 0 -6 -22 c-4 -13 -27 -70 -52 -128 -59 -138 -81 -193 -218 -525 -64 -154 -124 -300 -135 -325 -20 -45 -123 -293 -185 -445 -18 -44 -68 -163 -110 -265 -42 -102 -96 -232 -120 -290 -24 -58 -64 -153 -89 -212 -25 -59 -46 -110 -46 -113 0 -3 -33 -83 -74 -178 -40 -95 -78 -185 -84 -202 -6 -16 -26 -66 -44 -110 -19 -44 -61 -143 -93 -220 -200 -483 -209 -505 -216 -505 -4 0 -12 12 -17 28 -18 46 -72 175 -92 219 -11 24 -20 46 -20 49 0 3 -20 54 -45 113 -73 170 -79 185 -175 416 -50 121 -102 245 -115 276 -14 31 -25 59 -25 62 0 4 -11 31 -25 60 -13 30 -40 93 -60 141 -65 159 -102 250 -194 469 -50 120 -91 220 -91 222 0 3 -11 28 -24 57 -13 29 -37 87 -54 128 -17 41 -47 113 -67 160 -20 47 -49 117 -64 155 -35 88 -228 549 -246 590 -7 17 -29 68 -48 115 -20 47 -51 124 -71 172 -20 48 -36 92 -36 98 0 6 100 10 289 10 l289 0 10 -27z m-4326 -245 c25 -9 26 -12 32 -111 9 -171 25 -851 20 -857 -3 -2 -35 11 -71 30 l-66 35 2 189 c1 104 4 192 6 196 2 3 5 100 6 215 2 273 7 328 28 319 9 -3 28 -10 43 -16z m-134 -530 l-3 -81 -60 -42 c-42 -30 -64 -53 -74 -79 -13 -34 -12 -41 7 -81 33 -68 96 -109 316 -206 271 -120 381 -224 416 -393 37 -177 -77 -356 -297 -470 l-33 -17 0 68 c0 38 -3 91 -6 119 l-6 51 46 32 c88 61 119 157 76 240 -33 66 -104 115 -315 220 -158 78 -213 111 -262 155 -162 148 -162 343 2 467 52 39 161 98 183 99 10 0 12 -20 10 -82z m142 -723 c28 -14 53 -31 55 -38 2 -7 8 -232 14 -502 6 -269 14 -554 17 -632 l5 -143 -45 0 c-25 0 -48 5 -51 10 -3 6 -28 10 -54 10 -84 0 -79 -24 -70 395 6 278 22 812 29 937 0 9 33 -3 100 -37z m-180 -673 l0 -129 -60 -46 c-107 -83 -149 -196 -116 -310 31 -107 155 -183 339 -207 136 -18 164 -15 209 24 61 52 143 71 314 71 183 0 216 -15 192 -87 -16 -47 -90 -150 -140 -193 -24 -21 -66 -48 -93 -61 l-50 -23 -250 9 c-192 7 -269 14 -330 29 -285 71 -438 235 -453 488 -5 92 19 192 65 271 35 59 116 146 172 185 48 33 180 106 194 107 4 0 7 -58 7 -128z m1040 -501 c0 -16 -30 -41 -49 -41 -10 0 -35 -11 -55 -25 -33 -22 -36 -23 -36 -6 0 24 18 39 77 61 58 22 63 23 63 11z m-832 -507 l72 -7 0 -114 0 -114 -37 8 c-48 10 -116 10 -170 0 l-43 -7 0 109 c0 142 1 145 59 137 25 -3 79 -9 119 -12z m72 -304 c57 -29 87 -52 117 -92 34 -47 29 -51 -24 -18 -70 43 -162 64 -253 57 -61 -5 -90 -13 -152 -45 -43 -22 -78 -36 -78 -30 0 5 21 32 48 59 92 96 230 124 342 69z m-56 -121 c21 -6 58 -29 82 -51 112 -104 96 -276 -34 -359 -44 -28 -53 -30 -124 -27 -66 3 -82 7 -120 33 -53 37 -98 120 -98 179 0 71 19 116 69 166 63 63 138 83 225 59z"/>
</g>
<g id="layer105" fill="#ffffff" stroke="none">
<path d="M0 3375 l0 -3375 6000 0 6000 0 0 3375 0 3375 -6000 0 -6000 0 0 -3375z m1980 915 c50 -124 106 -261 124 -305 19 -44 64 -154 101 -245 37 -91 85 -207 106 -257 22 -51 39 -95 39 -98 0 -4 9 -25 19 -48 10 -23 48 -114 84 -202 86 -211 139 -341 232 -565 140 -339 207 -504 235 -575 15 -38 51 -126 80 -195 29 -69 61 -147 72 -175 11 -27 26 -63 33 -80 8 -16 44 -104 81 -195 115 -285 135 -335 141 -347 4 -10 -56 -13 -284 -13 l-288 0 -24 63 c-13 34 -37 92 -53 129 -15 36 -28 69 -28 73 0 4 -20 55 -44 114 -25 58 -101 248 -169 421 -69 173 -162 407 -207 520 -45 113 -93 232 -106 265 -70 182 -171 433 -184 460 -5 11 -23 58 -41 103 -17 46 -35 80 -39 75 -7 -8 -49 -103 -135 -308 -21 -49 -46 -108 -55 -130 -30 -66 -119 -275 -152 -355 -17 -41 -48 -113 -68 -160 -21 -47 -55 -125 -75 -175 -37 -90 -59 -141 -133 -310 -22 -49 -56 -130 -77 -180 -21 -49 -54 -128 -75 -175 -20 -47 -70 -163 -111 -257 l-73 -173 -288 0 c-240 0 -288 2 -288 14 0 8 16 49 36 92 67 147 103 229 137 309 19 44 83 190 142 325 59 135 141 322 182 415 41 94 89 204 108 245 18 41 56 127 83 190 28 63 78 177 111 253 34 76 61 140 61 142 0 1 18 42 40 89 22 47 40 88 40 91 0 4 11 30 24 58 33 70 256 576 267 605 5 12 17 41 28 65 10 23 60 137 111 252 50 116 104 237 119 270 16 33 34 77 42 98 8 23 16 32 20 25 4 -7 48 -114 99 -238z m1869 126 c37 -38 132 -87 261 -136 186 -70 253 -118 301 -215 27 -55 31 -73 27 -122 -7 -104 -75 -203 -193 -281 -71 -47 -75 -45 -75 43 l0 74 43 29 c63 44 89 80 95 129 10 92 -26 128 -231 228 -123 59 -227 128 -265 174 -18 22 -52 88 -52 101 0 24 57 9 89 -24z m251 -21 c0 -61 -8 -67 -60 -40 -24 12 -30 22 -30 49 0 42 5 46 52 46 l38 0 0 -55z m1608 -582 l2 -573 195 0 195 0 101 138 c56 75 113 153 127 172 14 19 29 37 32 40 4 3 37 46 73 97 57 79 145 197 170 228 4 6 78 105 163 220 86 116 164 220 175 233 19 22 20 22 309 22 204 0 290 -3 290 -11 0 -6 -111 -160 -247 -342 -137 -183 -339 -453 -450 -602 l-201 -270 96 -47 c125 -62 220 -134 302 -229 180 -210 262 -450 263 -769 1 -263 -58 -482 -180 -669 -152 -234 -364 -371 -683 -442 -39 -8 -236 -13 -657 -16 l-603 -4 0 1700 0 1701 263 -2 262 -3 3 -572z m2690 550 c12 -31 233 -592 260 -661 l17 -42 604 2 605 3 27 65 c16 36 79 193 140 350 62 157 117 291 122 298 7 9 78 12 294 12 l284 0 -6 -22 c-4 -13 -27 -70 -52 -128 -59 -138 -81 -193 -218 -525 -64 -154 -124 -300 -135 -325 -20 -45 -123 -293 -185 -445 -18 -44 -68 -163 -110 -265 -42 -102 -96 -232 -120 -290 -24 -58 -64 -153 -89 -212 -25 -59 -46 -110 -46 -113 0 -3 -33 -83 -74 -178 -40 -95 -78 -185 -84 -202 -6 -16 -26 -66 -44 -110 -19 -44 -61 -143 -93 -220 -200 -483 -209 -505 -216 -505 -4 0 -12 12 -17 28 -18 46 -72 175 -92 219 -11 24 -20 46 -20 49 0 3 -20 54 -45 113 -73 170 -79 185 -175 416 -50 121 -102 245 -115 276 -14 31 -25 59 -25 62 0 4 -11 31 -25 60 -13 30 -40 93 -60 141 -65 159 -102 250 -194 469 -50 120 -91 220 -91 222 0 3 -11 28 -24 57 -13 29 -37 87 -54 128 -17 41 -47 113 -67 160 -20 47 -49 117 -64 155 -35 88 -228 549 -246 590 -7 17 -29 68 -48 115 -20 47 -51 124 -71 172 -20 48 -36 92 -36 98 0 6 100 10 289 10 l289 0 10 -27z m-4326 -245 c25 -9 26 -12 32 -111 9 -171 25 -851 20 -857 -3 -2 -35 11 -71 30 l-66 35 2 189 c1 104 4 192 6 196 2 3 5 100 6 215 2 273 7 328 28 319 9 -3 28 -10 43 -16z m-134 -530 l-3 -81 -60 -42 c-42 -30 -64 -53 -74 -79 -13 -34 -12 -41 7 -81 33 -68 96 -109 316 -206 271 -120 381 -224 416 -393 37 -177 -77 -356 -297 -470 l-33 -17 0 68 c0 38 -3 91 -6 119 l-6 51 46 32 c88 61 119 157 76 240 -33 66 -104 115 -315 220 -158 78 -213 111 -262 155 -162 148 -162 343 2 467 52 39 161 98 183 99 10 0 12 -20 10 -82z m142 -723 c28 -14 53 -31 55 -38 2 -7 8 -232 14 -502 6 -269 14 -554 17 -632 l5 -143 -45 0 c-25 0 -48 5 -51 10 -3 6 -28 10 -54 10 -84 0 -79 -24 -70 395 6 278 22 812 29 937 0 9 33 -3 100 -37z m-180 -673 l0 -129 -60 -46 c-107 -83 -149 -196 -116 -310 31 -107 155 -183 339 -207 136 -18 164 -15 209 24 61 52 143 71 314 71 183 0 216 -15 192 -87 -16 -47 -90 -150 -140 -193 -24 -21 -66 -48 -93 -61 l-50 -23 -250 9 c-192 7 -269 14 -330 29 -285 71 -438 235 -453 488 -5 92 19 192 65 271 35 59 116 146 172 185 48 33 180 106 194 107 4 0 7 -58 7 -128z m1040 -501 c0 -16 -30 -41 -49 -41 -10 0 -35 -11 -55 -25 -33 -22 -36 -23 -36 -6 0 24 18 39 77 61 58 22 63 23 63 11z m-832 -507 l72 -7 0 -114 0 -114 -37 8 c-48 10 -116 10 -170 0 l-43 -7 0 109 c0 142 1 145 59 137 25 -3 79 -9 119 -12z m72 -304 c57 -29 87 -52 117 -92 34 -47 29 -51 -24 -18 -70 43 -162 64 -253 57 -61 -5 -90 -13 -152 -45 -43 -22 -78 -36 -78 -30 0 5 21 32 48 59 92 96 230 124 342 69z m-56 -121 c21 -6 58 -29 82 -51 112 -104 96 -276 -34 -359 -44 -28 -53 -30 -124 -27 -66 3 -82 7 -120 33 -53 37 -98 120 -98 179 0 71 19 116 69 166 63 63 138 83 225 59z"/>
<path d="M5710 2116 l0 -646 263 0 c341 0 436 12 552 70 142 70 226 178 277 356 32 114 32 324 0 439 -60 209 -189 342 -392 402 -44 13 -119 17 -377 20 l-323 5 0 -646z"/>
<path d="M8889 3133 c26 -67 327 -824 359 -905 15 -37 29 -68 33 -68 3 0 15 26 26 58 25 66 66 168 93 232 23 54 227 569 245 620 7 19 20 52 29 73 l16 37 -410 0 -410 0 19 -47z"/>
<path d="M4532 1408 c-25 -25 0 -64 32 -52 21 8 21 50 0 58 -20 8 -18 8 -32 -6z"/>
</g>


</svg>